<?xml version="1.0" encoding="UTF-8"?>
<!DOCTYPE svg PUBLIC "-//W3C//DTD SVG 1.1//EN" "http://www.w3.org/Graphics/SVG/1.1/DTD/svg11.dtd">
<!-- Creator: CorelDRAW 2020 (64-Bit) -->
<svg xmlns="http://www.w3.org/2000/svg" xml:space="preserve" width="336px" height="304px" version="1.1" style="shape-rendering:geometricPrecision; text-rendering:geometricPrecision; image-rendering:optimizeQuality; fill-rule:evenodd; clip-rule:evenodd"
viewBox="0 0 336 304.05"
 xmlns:xlink="http://www.w3.org/1999/xlink"
 xmlns:xodm="http://www.corel.com/coreldraw/odm/2003">
 <defs>
  <style type="text/css">
   <![CDATA[
    .str0 {stroke:black;stroke-width:3.13;stroke-miterlimit:22.9256}
    .fil7 {fill:none;fill-rule:nonzero}
    .fil3 {fill:black;fill-rule:nonzero}
    .fil1 {fill:#0A3871;fill-rule:nonzero}
    .fil0 {fill:#E8E8E8;fill-rule:nonzero}
    .fil2 {fill:white;fill-rule:nonzero}
    .fil4 {fill:#9B9797;fill-rule:nonzero;fill-opacity:0.180392}
    .fil6 {fill:#9B9797;fill-rule:nonzero;fill-opacity:0.239216}
    .fil5 {fill:#9B9797;fill-rule:nonzero;fill-opacity:0.250980}
   ]]>
  </style>
 </defs>
 <g id="Capa_x0020_1">
  <metadata id="CorelCorpID_0Corel-Layer"/>
  <path class="fil0" d="M0.61 249.68c2.94,-1.44 4.18,-5.25 7.36,-6.24 3.27,-1.02 6.9,0.99 9.88,-1.22 1.3,-0.96 2.27,-2.57 3.85,-3.15 1.38,-0.49 2.82,0.06 4.15,0.47 1.14,0.36 2.27,0.69 3.4,1.05 4.57,1.41 9.11,2.79 13.68,4.2 5.17,1.57 10.32,3.18 15.49,4.75 0.5,0.17 0.72,-0.63 0.22,-0.8 -9.46,-2.9 -18.9,-5.8 -28.36,-8.7 -2.21,-0.66 -4.51,-1.68 -6.81,-1.96 -1.6,-0.19 -2.88,0.44 -4.01,1.49 -1.58,1.46 -2.77,2.82 -5.06,2.93 -1.91,0.11 -3.8,-0.39 -5.71,-0.08 -3.93,0.6 -5.14,4.88 -8.46,6.51 -0.5,0.28 -0.09,1 0.38,0.75z"/>
  <path class="fil0" d="M50.34 246.2c1.97,0.5 3.52,-1.46 5.29,-2.04 2.38,-0.81 4.92,-0.47 7.08,0.77 0.47,0.28 0.89,-0.44 0.42,-0.72 -1.83,-1.08 -3.9,-1.52 -6.01,-1.24 -0.91,0.11 -1.77,0.36 -2.6,0.72 -1.19,0.52 -2.57,2.04 -3.96,1.71 -0.52,-0.14 -0.74,0.66 -0.22,0.8z"/>
  <path class="fil0" d="M71.68 244.13c-1.86,-1.52 -3.63,-3.15 -5.29,-4.89 -0.77,-0.8 -1.52,-1.66 -2.24,-2.51 -0.41,-0.5 -0.83,-1 -1.22,-1.49 -0.27,-0.36 -0.55,-0.72 -0.8,-1.08 -0.44,-0.44 -0.44,-1 0.03,-1.6 0.33,0.13 0.86,-0.2 0.58,-0.58 -1.69,-2.27 -2.93,-4.75 -3.74,-7.46 -0.16,0.17 -0.33,0.33 -0.49,0.5 0.91,0.25 1.57,0.71 2.07,1.49 0.28,0.44 1,0.05 0.72,-0.42 -4.12,-7.12 -7.5,-14.63 -10.04,-22.45 -0.23,0.14 -0.47,0.28 -0.7,0.42 11.6,11.37 16.86,27.2 26.63,39.93 0.33,0.41 1.05,0 0.71,-0.41 -9.79,-12.79 -15.11,-28.67 -26.76,-40.1 -0.27,-0.28 -0.83,0 -0.69,0.41 2.58,7.9 5.95,15.47 10.13,22.65 0.25,-0.14 0.47,-0.28 0.72,-0.42 -0.64,-0.96 -1.47,-1.6 -2.57,-1.88 -0.31,-0.08 -0.61,0.2 -0.5,0.5 0.83,2.76 2.1,5.33 3.82,7.65 0.19,-0.19 0.39,-0.39 0.58,-0.58 -0.78,-0.36 -1.63,0 -1.83,0.91 -0.25,1.3 1.33,2.74 2.05,3.65 2.46,3.06 5.26,5.85 8.3,8.34 0.36,0.33 0.94,-0.25 0.53,-0.58z"/>
  <path class="fil0" d="M68.77 226.87c-5.09,-7.6 -9.21,-15.74 -12.26,-24.36 -0.08,0.16 -0.19,0.33 -0.27,0.5 0.94,-0.22 1.74,0.13 2.27,0.96 0.27,0.47 0.94,0.06 0.72,-0.41 -4.29,-9.25 -8.67,-18.89 -8.36,-29.3 -0.25,0.08 -0.53,0.14 -0.78,0.22 7.39,15.19 14.42,30.57 21.06,46.09 0.2,0.44 0.91,0.11 0.75,-0.33 -1.11,-3.32 -2.19,-6.66 -3.29,-9.97 -0.53,-1.63 -1.08,-3.23 -1.61,-4.86 -0.36,-1.08 -1.13,-3.42 0.42,-4 -0.17,-0.06 -0.31,-0.14 -0.47,-0.2 1.99,3.9 3.95,7.79 5.95,11.68 0.24,0.47 0.96,0.06 0.71,-0.41 -2.15,-4.23 -3.15,-8.89 -2.96,-13.64 -0.27,0.02 -0.55,0.08 -0.8,0.11 5.76,14.27 12.43,28.19 19.93,41.64 0.24,0.47 0.97,0.06 0.71,-0.41 -7.47,-13.4 -14.11,-27.23 -19.84,-41.45 -0.16,-0.42 -0.8,-0.39 -0.8,0.11 -0.19,4.88 0.86,9.66 3.07,14.05 0.25,-0.13 0.47,-0.27 0.72,-0.41 -1.99,-3.89 -3.95,-7.79 -5.95,-11.68 -0.08,-0.14 -0.3,-0.25 -0.47,-0.2 -2.76,1.03 -0.99,4.98 -0.38,6.83 1.43,4.33 2.85,8.7 4.28,13.03 0.25,-0.11 0.5,-0.22 0.75,-0.33 -6.64,-15.52 -13.67,-30.9 -21.06,-46.09 -0.19,-0.39 -0.77,-0.17 -0.77,0.22 -0.33,10.55 4.12,20.35 8.47,29.71 0.25,-0.14 0.47,-0.27 0.72,-0.41 -0.72,-1.13 -1.89,-1.63 -3.22,-1.35 -0.22,0.05 -0.36,0.3 -0.27,0.49 3.07,8.67 7.22,16.9 12.34,24.55 0.28,0.47 1,0.06 0.69,-0.38z"/>
  <path class="fil0" d="M14.09 280.25c9.57,-4.61 19.68,-9.31 30.61,-8.2 5.17,0.52 10.18,2.01 15.33,2.68 2.6,0.33 5.23,0.47 7.83,0.16 2.43,-0.3 4.73,-1.18 7.11,-1.71 3.07,-0.69 5.87,0.03 8.83,0.86 2.43,0.66 4.84,1.21 7.36,0.63 0.53,-0.11 0.3,-0.91 -0.22,-0.8 -5.04,1.19 -9.77,-2.43 -14.86,-1.71 -2.52,0.36 -4.87,1.35 -7.36,1.79 -2.63,0.44 -5.32,0.39 -7.97,0.06 -5.23,-0.61 -10.33,-2.16 -15.58,-2.74 -5.18,-0.58 -10.3,0.09 -15.25,1.52 -5.65,1.66 -10.99,4.2 -16.25,6.74 -0.49,0.22 -0.05,0.94 0.42,0.72z"/>
  <path class="fil0" d="M70.27 303.14c3.23,-1.38 6.42,-2.9 9.49,-4.61 1.6,-0.91 3.18,-1.85 4.76,-2.84 1.41,-0.91 2.82,-2.21 4.37,-2.87 1.74,-0.72 4.37,0.63 6.12,1.16 1.85,0.57 3.7,1.13 5.53,1.71 3.79,1.16 7.58,2.32 11.35,3.48 0.5,0.16 0.72,-0.64 0.22,-0.8 -4.04,-1.25 -8.11,-2.49 -12.15,-3.73 -1.94,-0.61 -3.87,-1.19 -5.81,-1.8 -1.5,-0.47 -3.38,-1.43 -4.95,-1.05 -1.47,0.36 -2.8,1.63 -4.04,2.46 -1.61,1.05 -3.27,2.07 -4.93,3.04 -3.35,1.9 -6.81,3.62 -10.38,5.11 -0.5,0.22 -0.05,0.94 0.42,0.74z"/>
  <path class="fil0" d="M104.69 304c2.11,-1.05 4.21,-2.13 6.31,-3.18 1.94,-0.99 4.01,-2.32 6.23,-2.51 2.24,-0.22 3.98,1.24 5.92,2.1 1.63,0.72 3.4,1.13 5.17,1.24 4.16,0.22 8.03,-1.85 12.15,-1.63 3.3,0.2 6.62,2.9 9.85,1.19 0.47,-0.25 0.06,-0.97 -0.41,-0.72 -2.02,1.08 -4.21,0.03 -6.2,-0.6 -1.71,-0.56 -3.37,-0.81 -5.17,-0.61 -4.27,0.44 -8.17,2.23 -12.54,1.21 -3.62,-0.83 -6.39,-3.84 -10.29,-2.7 -1.8,0.52 -3.49,1.51 -5.15,2.34 -2.11,1.05 -4.21,2.13 -6.31,3.18 -0.44,0.22 -0.03,0.94 0.44,0.69z"/>
  <path class="fil0" d="M120.85 298.01c-1.71,-1.49 -3.26,-3.15 -4.54,-5.06 -0.58,-0.85 -1.1,-1.76 -1.6,-2.68 -0.25,-0.47 -0.47,-0.94 -0.66,-1.4 -0.17,-0.39 -0.34,-0.75 -0.48,-1.14 -0.24,-0.41 -0.13,-0.8 0.34,-1.16 0.25,-0.11 0.5,-0.22 0.74,-0.33 -3.04,-4.47 -4.95,-9.55 -5.59,-14.91 -0.25,0.11 -0.47,0.19 -0.72,0.3 0.5,0.64 1,1.27 1.53,1.94 0.3,0.38 0.88,-0.11 0.66,-0.5 -4.81,-8.59 -7.39,-18.26 -7.44,-28.09 -0.25,0.11 -0.47,0.2 -0.72,0.31 1.88,1.52 3.32,3.39 4.2,5.63 0.25,-0.11 0.5,-0.22 0.75,-0.33 -2.16,-4.56 -2.6,-9.69 -1.33,-14.55 -0.27,0 -0.52,0 -0.8,0 5.67,16.21 11.32,32.39 16.99,48.6 0.17,0.5 0.97,0.28 0.8,-0.22 -2.85,-8.31 -4.26,-17.04 -4.18,-25.85 -0.24,0.11 -0.47,0.19 -0.71,0.31 1.68,1.51 2.74,3.42 3.12,5.66 0.09,0.47 0.83,0.36 0.8,-0.11 -0.08,-1.69 -0.19,-3.4 -0.27,-5.09 -0.22,0.12 -0.42,0.25 -0.64,0.36 1.47,0.94 1.75,3.43 2.22,4.97 0.49,1.66 0.99,3.32 1.52,5 1.02,3.43 2.07,6.82 3.1,10.25 2.07,6.82 4.15,13.67 6.22,20.49 0.17,0.5 0.97,0.3 0.81,-0.22 -2.24,-7.35 -4.46,-14.72 -6.7,-22.07 -1.08,-3.59 -2.19,-7.18 -3.27,-10.77 -0.55,-1.85 -1.1,-3.67 -1.66,-5.52 -0.36,-1.13 -0.77,-2.15 -1.8,-2.82 -0.24,-0.16 -0.63,0.06 -0.63,0.36 0.08,1.69 0.19,3.4 0.27,5.08 0.28,-0.02 0.56,-0.08 0.81,-0.11 -0.39,-2.37 -1.55,-4.44 -3.35,-6.04 -0.28,-0.25 -0.69,-0.09 -0.72,0.3 -0.08,8.86 1.33,17.67 4.21,26.07 0.27,-0.08 0.52,-0.14 0.8,-0.22 -5.67,-16.21 -11.32,-32.4 -16.99,-48.61 -0.14,-0.36 -0.7,-0.41 -0.81,0 -1.32,5.11 -0.83,10.44 1.42,15.19 0.19,0.42 0.94,0.11 0.74,-0.33 -0.94,-2.37 -2.4,-4.39 -4.42,-5.99 -0.28,-0.22 -0.72,-0.08 -0.72,0.3 0.05,9.97 2.65,19.8 7.55,28.5 0.22,-0.16 0.44,-0.33 0.67,-0.5 -0.5,-0.63 -1,-1.27 -1.53,-1.93 -0.22,-0.28 -0.74,-0.05 -0.72,0.31 0.64,5.52 2.58,10.74 5.71,15.32 0.27,0.39 0.82,0.14 0.74,-0.33 -0.14,-0.77 -1.05,-1.05 -1.69,-0.58 -1.16,0.83 -0.02,2.79 0.39,3.73 1.58,3.51 3.93,6.57 6.84,9.08 0.58,0.31 1.16,-0.27 0.74,-0.6z"/>
  <path class="fil0" d="M91.91 236.06c-0.36,-5.19 9.07,-2.21 11.7,-1.71 4.32,0.8 8.61,1.6 12.93,2.4 8.6,1.61 17.24,3.21 25.84,4.81 0.53,0.11 0.75,-0.69 0.22,-0.8 -9.87,-1.85 -19.73,-3.67 -29.61,-5.52 -4.84,-0.92 -9.68,-1.83 -14.53,-2.71 -1.74,-0.33 -3.76,-0.69 -5.39,0.22 -1.25,0.66 -2.08,1.88 -1.97,3.31 0,0.53 0.86,0.53 0.81,0z"/>
  <path class="fil0" d="M136.65 240.65c2.88,0.3 4.65,-2.43 6.9,-3.76 1.91,-1.1 3.56,-0.25 5.53,0.14 2.19,0.44 4.43,0.5 6.64,0.22 0.53,-0.06 0.53,-0.88 0,-0.83 -2.49,0.31 -4.98,0.2 -7.41,-0.41 -1.47,-0.39 -2.8,-0.86 -4.27,-0.28 -2.6,1 -4.37,4.42 -7.39,4.09 -0.52,-0.06 -0.52,0.77 0,0.83z"/>
  <path class="fil0" d="M189.43 293.75c6.64,-2.32 13.34,-4.64 20.2,-6.29 7.17,-1.71 14.39,-2.41 21.75,-2.18 7.28,0.22 14.5,1.05 21.75,1.71 7.28,0.69 14.56,1.35 21.83,2.04 8.36,0.77 16.75,1.55 25.1,2.35 0.53,0.05 0.53,-0.77 0,-0.83 -14.91,-1.38 -29.83,-2.76 -44.77,-4.17 -14.36,-1.33 -28.81,-3.29 -43.12,-0.33 -7.86,1.63 -15.44,4.28 -22.99,6.9 -0.47,0.17 -0.25,0.97 0.25,0.8z"/>
  <path class="fil0" d="M218.68 266.58c4.95,-1.05 9.6,-3.12 14.28,-5 5,-1.99 10.07,-3.37 15.44,-3.84 5.42,-0.47 10.87,-0.19 16.27,0.14 5.42,0.33 10.85,0.72 16.3,1.11 6.34,0.47 12.7,0.99 19.04,1.54 0.52,0.06 0.52,-0.77 0,-0.83 -11.24,-0.99 -22.47,-1.85 -33.74,-2.57 -10.7,-0.69 -21.25,-0.96 -31.46,2.82 -5.42,2.02 -10.68,4.59 -16.38,5.8 -0.47,0.14 -0.28,0.94 0.25,0.83z"/>
  <path class="fil0" d="M282.46 234.74c3.96,-3.01 8.14,-5.97 12.57,-8.23 2.16,-1.11 4.48,-1.99 6.92,-2.18 2.62,-0.22 5.25,0.3 7.83,0.63 5.23,0.64 10.49,1.02 15.74,1.35 3.49,0.23 7.92,0.72 10.38,-2.32 0.33,-0.41 -0.25,-0.99 -0.58,-0.57 -2.79,3.45 -8.69,2.15 -12.51,1.9 -5.26,-0.36 -10.46,-0.86 -15.69,-1.52 -2.24,-0.27 -4.45,-0.5 -6.7,-0.08 -2.21,0.39 -4.29,1.27 -6.25,2.32 -4.26,2.26 -8.3,5.08 -12.15,8.01 -0.39,0.3 0.03,1.02 0.44,0.69z"/>
  <path class="fil0" d="M130.12 230.18c3.93,-2.95 7.89,-5.88 11.82,-8.84 3.76,-2.81 7.28,-5.77 12.2,-6.02 4.65,-0.22 9.41,0.31 14.03,0.69 4.99,0.42 9.94,0.97 14.86,1.66 4.16,0.58 9.11,2.13 13.04,-0.03 0.47,-0.25 0.05,-0.96 -0.42,-0.72 -2.02,1.11 -4.26,1.11 -6.5,0.83 -2.41,-0.3 -4.81,-0.71 -7.22,-1.05 -4.65,-0.63 -9.33,-1.15 -14.03,-1.54 -4.62,-0.39 -9.41,-0.94 -14.03,-0.66 -4.29,0.24 -7.47,2.45 -10.82,4.97 -4.46,3.31 -8.89,6.65 -13.34,9.97 -0.42,0.36 0,1.07 0.41,0.74z"/>
  <path class="fil0" d="M285.81 259.37c0.25,-1.82 0.61,-3.59 1.14,-5.36 0.25,-0.82 0.49,-1.65 0.83,-2.48 0.19,-0.5 0.72,-1.33 1.44,-1.13 0.36,0.11 0.52,1.35 0.55,1.6 0.05,0.44 0.66,0.58 0.8,0.11 1.3,-4.23 2.8,-8.87 6.78,-11.32 -0.22,-0.11 -0.41,-0.25 -0.63,-0.36 0,0.69 -0.03,1.41 -0.03,2.1 0,0.38 0.58,0.58 0.77,0.22 2.47,-5.11 5.15,-10.47 10.13,-13.56 -0.19,-0.17 -0.41,-0.31 -0.61,-0.47 -2.49,6.43 -5.39,12.7 -8.69,18.78 -0.22,0.38 0.34,0.88 0.67,0.49 1.85,-2.2 3.73,-4.41 6.17,-6.02 -0.2,-0.19 -0.39,-0.38 -0.58,-0.58 -3.07,6.47 -6.42,12.76 -10.1,18.89 -0.28,0.47 0.44,0.89 0.72,0.42 3.65,-6.13 7.02,-12.43 10.1,-18.89 0.16,-0.33 -0.2,-0.83 -0.58,-0.58 -2.5,1.66 -4.43,3.89 -6.34,6.16 0.22,0.16 0.44,0.33 0.66,0.49 3.32,-6.13 6.26,-12.45 8.77,-18.97 0.14,-0.33 -0.33,-0.63 -0.6,-0.47 -5.12,3.18 -7.89,8.62 -10.44,13.86 0.25,0.09 0.53,0.14 0.78,0.23 0,-0.69 0.03,-1.41 0.03,-2.1 0,-0.31 -0.36,-0.53 -0.64,-0.36 -4.15,2.57 -5.78,7.37 -7.14,11.82 0.28,0.02 0.55,0.08 0.8,0.11 -0.14,-1.41 -1.41,-3.81 -2.96,-2.02 -0.77,0.91 -1.08,2.4 -1.41,3.54 -0.55,1.82 -0.94,3.7 -1.22,5.6 -0.02,0.56 0.75,0.78 0.83,0.25z"/>
  <path class="fil0" d="M92.46 212.76c2.16,-1.16 4.35,-2.32 6.73,-2.96 2.51,-0.66 5,-0.44 7.52,-0.11 5.01,0.66 10.02,1.33 15,1.99 0.53,0.08 0.53,-0.75 0,-0.83 -5.34,-0.72 -10.71,-1.49 -16.05,-2.13 -2.46,-0.3 -4.81,-0.3 -7.2,0.39 -2.26,0.66 -4.37,1.8 -6.44,2.9 -0.47,0.3 -0.03,0.99 0.44,0.75z"/>
  <path class="fil0" d="M260.8 25.43c1.99,-1.68 4.78,-1.35 6.97,-0.27 1.66,0.8 3.02,2.43 4.95,2.51 1.8,0.06 3.3,-1.16 4.82,-1.96 1.02,-0.52 2.07,-0.88 3.24,-0.64 1.24,0.25 2.32,0.97 3.46,1.47 3.73,1.63 6.22,-0.64 9.38,-2.43 0.88,-0.5 1.82,-0.94 2.85,-1.02 1.3,-0.11 2.46,0.47 3.62,0.96 1.83,0.78 3.21,1.08 5.07,0.34 1.91,-0.75 3.45,-0.64 5.36,0.05 1.22,0.44 2.38,0.99 3.66,1.27 1.91,0.44 3.95,0.33 5.39,-1.13 0.39,-0.39 -0.22,-0.97 -0.58,-0.58 -1.85,1.88 -4.68,0.99 -6.8,0.16 -2.16,-0.82 -4.38,-1.71 -6.67,-0.85 -1.44,0.55 -2.41,0.94 -3.96,0.41 -1.05,-0.36 -2.02,-0.94 -3.1,-1.24 -1.63,-0.5 -3.16,-0.22 -4.65,0.52 -1.72,0.86 -3.21,2.21 -5.01,2.93 -2.38,0.94 -4.23,-0.3 -6.39,-1.21 -1.58,-0.67 -3.07,-0.78 -4.65,-0.09 -1.91,0.86 -3.76,2.74 -6.01,1.94 -1.19,-0.42 -2.13,-1.38 -3.21,-1.99 -0.91,-0.5 -1.9,-0.86 -2.93,-1.05 -1.96,-0.36 -3.87,-0.03 -5.42,1.27 -0.39,0.41 0.22,0.99 0.61,0.63z"/>
  <path class="fil0" d="M270.76 44.3c0.53,0 0.53,-0.83 0,-0.83 -0.53,0 -0.53,0.83 0,0.83z"/>
  <path class="fil0" d="M276.29 47.31c1.3,-2.35 4.38,-1.22 6.28,-0.45 1.91,0.78 3.63,1.25 5.65,0.56 1.66,-0.58 3.15,-1.69 4.87,-2.07 2.38,-0.56 3.74,1.46 5.89,1.93 3.38,0.74 6.78,-3.01 9.97,-1.44 0.88,0.45 1.49,1.02 2.54,0.94 0.97,-0.05 1.86,-0.52 2.8,-0.74 2.63,-0.61 5.37,-0.14 7.72,1.16 0.47,0.24 0.88,-0.47 0.41,-0.72 -1.49,-0.83 -3.09,-1.33 -4.78,-1.49 -0.86,-0.09 -1.75,-0.06 -2.6,0.08 -1.03,0.14 -1.97,0.58 -2.97,0.77 -1.35,0.25 -1.93,-0.41 -3.04,-0.88 -0.55,-0.22 -1.16,-0.33 -1.74,-0.3 -1.39,0.05 -2.72,0.63 -3.99,1.1 -1.63,0.61 -3.37,1.19 -5.04,0.36 -1.41,-0.69 -2.51,-1.74 -4.17,-1.74 -3.43,0.03 -5.84,3.31 -9.47,2.32 -2.68,-0.75 -7,-3.37 -8.99,0.16 -0.31,0.5 0.41,0.92 0.66,0.45z"/>
  <path class="fil0" d="M249.45 80.36c1.97,-1.54 4.21,-1.46 6.36,-0.47 1.19,0.56 2.47,1.08 3.71,0.34 0.72,-0.45 1.19,-1.14 2.05,-1.39 0.91,-0.27 1.88,-0.08 2.77,0.14 1.57,0.39 3.1,1.08 4.73,1.19 1.94,0.14 3.71,-0.69 5.59,-0.88 2.02,-0.2 3.43,1.02 5.31,1.29 1.83,0.25 3.24,-1.21 5.07,-0.93 2.21,0.33 4.4,1.07 6.58,1.62 0.53,0.14 0.75,-0.66 0.22,-0.8 -2.29,-0.58 -4.67,-1.46 -7.02,-1.71 -2,-0.22 -3.43,1.41 -5.43,0.8 -1.85,-0.55 -3.18,-1.35 -5.17,-1.07 -2.13,0.3 -4.07,1.13 -6.26,0.66 -1.69,-0.36 -3.32,-1.16 -5.06,-1.27 -0.64,-0.03 -1.3,0.03 -1.91,0.27 -0.78,0.31 -1.19,0.94 -1.91,1.36 -1.66,0.96 -3.9,-1.08 -5.67,-1.22 -1.69,-0.14 -3.24,0.44 -4.57,1.47 -0.41,0.35 0.2,0.93 0.61,0.6z"/>
  <path class="fil0" d="M90.8 20.1c0.53,0 0.53,-0.82 0,-0.82 -0.53,0 -0.53,0.82 0,0.82z"/>
  <path class="fil0" d="M93.24 20.74c0.49,-2.46 3.76,-0.88 4.95,-0.14 1.35,0.86 2.79,1.63 4.45,1.16 1.8,-0.52 3.02,-2.07 5.01,-2.18 1.88,-0.08 3.71,0.77 5.48,1.33 1.52,0.46 3.13,0.8 4.71,0.41 1.85,-0.44 3.43,-1.74 5.31,-2.07 3.71,-0.64 7.06,2.37 10.82,1.21 0.5,-0.16 0.3,-0.96 -0.22,-0.8 -3.93,1.25 -7.67,-2.24 -11.65,-0.99 -2.05,0.63 -3.77,2.07 -6.01,1.99 -2.07,-0.09 -3.95,-1.08 -5.92,-1.58 -1.55,-0.38 -3.13,-0.49 -4.62,0.2 -0.86,0.38 -1.6,1.02 -2.46,1.43 -1.41,0.66 -2.6,0.28 -3.88,-0.44 -1.38,-0.8 -2.57,-1.74 -4.26,-1.6 -1.19,0.08 -2.24,0.69 -2.46,1.9 -0.14,0.47 0.66,0.69 0.75,0.17z"/>
  <path class="fil0" d="M95.75 181.99c3.3,-1.38 6.62,1.08 9.94,1.24 1.71,0.09 3.37,-0.33 5.06,-0.66 2.13,-0.41 3.96,-0.44 6.01,0.41 1.24,0.53 2.38,0.86 3.65,0.36 0.72,-0.27 1.33,-0.74 2.05,-0.99 0.8,-0.28 1.63,-0.33 2.49,-0.33 2.96,0.05 5.92,1.08 8.74,-0.25 0.47,-0.22 0.06,-0.94 -0.41,-0.72 -3.02,1.41 -6.37,-0.14 -9.55,0.2 -1.52,0.16 -2.52,1.04 -3.93,1.46 -1.69,0.5 -3.35,-0.94 -5.01,-1.19 -3.57,-0.55 -6.94,1.44 -10.54,0.72 -2.88,-0.58 -5.79,-2.27 -8.72,-1.02 -0.47,0.19 -0.25,0.99 0.22,0.77z"/>
  <path class="fil1" d="M35.92 141.31c2.42,0 4.38,-1.95 4.38,-4.36 0,-2.41 -1.96,-4.37 -4.38,-4.37 -2.41,0 -4.37,1.96 -4.37,4.37 0,2.41 1.96,4.36 4.37,4.36z"/>
  <path class="fil1" d="M290.43 111.32c1.7,0 3.08,-1.37 3.08,-3.06 0,-1.7 -1.38,-3.07 -3.08,-3.07 -1.69,0 -3.07,1.37 -3.07,3.07 0,1.69 1.38,3.06 3.07,3.06z"/>
  <path class="fil1" d="M262.79 4.53c1.25,0 2.27,-1.02 2.27,-2.27 0,-1.25 -1.02,-2.26 -2.27,-2.26 -1.25,0 -2.27,1.01 -2.27,2.26 0,1.25 1.02,2.27 2.27,2.27z"/>
  <path class="fil1" d="M162.83 200.91c1.56,0 2.83,-1.26 2.83,-2.82 0,-1.55 -1.27,-2.82 -2.83,-2.82 -1.56,0 -2.82,1.27 -2.82,2.82 0,1.56 1.26,2.82 2.82,2.82z"/>
  <path class="fil1" d="M32.71 40.93c1.79,0 3.24,-1.45 3.24,-3.23 0,-1.79 -1.45,-3.24 -3.24,-3.24 -1.78,0 -3.23,1.45 -3.23,3.24 0,1.78 1.45,3.23 3.23,3.23z"/>
  <path class="fil1" d="M144.35 154.29c1.02,0 1.85,-0.83 1.85,-1.85 0,-1.02 -0.83,-1.85 -1.85,-1.85 -1.03,0 -1.86,0.83 -1.86,1.85 0,1.02 0.83,1.85 1.86,1.85z"/>
  <path class="fil1" d="M319.35 170.03c1.56,0 2.83,-1.26 2.83,-2.81 0,-1.56 -1.27,-2.82 -2.83,-2.82 -1.56,0 -2.82,1.26 -2.82,2.82 0,1.55 1.26,2.81 2.82,2.81z"/>
  <path class="fil1" d="M11.68 216.59c1.16,0 2.11,-0.94 2.11,-2.09 0,-1.16 -0.95,-2.1 -2.11,-2.1 -1.16,0 -2.1,0.94 -2.1,2.1 0,1.15 0.94,2.09 2.1,2.09z"/>
  <path class="fil2" d="M97.69 53.49c-2.41,4.89 -4.84,9.78 -7.25,14.67 9.96,13.33 19.92,26.65 29.89,39.98 2.57,-3.89 5.12,-7.87 7.69,-11.87 6.06,-9.5 11.84,-18.89 17.38,-28.2 -1.88,-4.77 -3.79,-9.58 -5.67,-14.36 -1.22,-0.63 -2.44,-1.24 -3.66,-1.87 -11.78,0.02 -23.57,0.05 -35.33,0.08 -1.06,0.55 -2.05,1.07 -3.05,1.57z"/>
  <path class="fil3" d="M90.77 68.38c2.11,-4.61 4.26,-9.2 6.48,-13.76 0.22,-0.47 -0.47,-0.91 -0.72,-0.41 -2.22,4.56 -4.37,9.14 -6.48,13.75 -0.22,0.47 0.5,0.91 0.72,0.42z"/>
  <path class="fil3" d="M90.22 68.87c9.74,13.34 19.67,26.52 29.8,39.58 0.34,0.41 0.92,-0.17 0.58,-0.58 -10.07,-13.01 -19.95,-26.13 -29.66,-39.41 -0.31,-0.41 -1.03,0 -0.72,0.41z"/>
  <path class="fil3" d="M97.44 54.15c1.16,-0.6 2.3,-1.24 3.46,-1.84 0.47,-0.25 0.06,-0.97 -0.41,-0.72 -1.17,0.6 -2.3,1.24 -3.46,1.85 -0.5,0.27 -0.06,0.96 0.41,0.71z"/>
  <path class="fil3" d="M101.59 52.36c8.64,0 17.3,0 25.93,0 0.53,0 0.53,-0.83 0,-0.83 -8.63,0 -17.29,0 -25.93,0 -0.52,0 -0.52,0.83 0,0.83z"/>
  <path class="fil3" d="M145.79 67.99c-1.75,-4.61 -3.55,-9.17 -5.4,-13.75 -0.19,-0.5 -1,-0.28 -0.8,0.22 1.85,4.55 3.65,9.14 5.39,13.75 0.2,0.5 1,0.28 0.81,-0.22z"/>
  <path class="fil3" d="M144.87 68.4c-8.1,13.26 -16.38,26.43 -24.82,39.5 -0.3,0.44 0.42,0.85 0.72,0.41 8.44,-13.06 16.71,-26.21 24.82,-39.49 0.28,-0.44 -0.44,-0.88 -0.72,-0.42z"/>
  <path class="fil3" d="M139.89 53.38c-0.97,-0.61 -1.93,-1.24 -2.9,-1.85 -0.45,-0.27 -0.86,0.42 -0.42,0.72 0.97,0.61 1.94,1.24 2.91,1.85 0.47,0.3 0.88,-0.41 0.41,-0.72z"/>
  <path class="fil3" d="M136.05 51.45c-7.23,0 -14.45,0 -21.65,0 -0.52,0 -0.52,0.83 0,0.83 7.23,0 14.45,0 21.65,0 0.52,0 0.52,-0.83 0,-0.83z"/>
  <path class="fil3" d="M91.1 68.79c4.96,-2.13 9.91,-4.25 14.86,-6.38 0.5,-0.22 0.06,-0.91 -0.41,-0.72 -4.95,2.13 -9.91,4.26 -14.86,6.38 -0.47,0.22 -0.06,0.94 0.41,0.72z"/>
  <path class="fil3" d="M97.58 53.91c3.04,0.47 6.03,1.13 8.99,1.96 0.53,0.14 0.75,-0.67 0.23,-0.8 -2.97,-0.86 -5.95,-1.5 -9,-1.96 -0.52,-0.09 -0.77,0.71 -0.22,0.8z"/>
  <path class="fil3" d="M106.35 55.73c0.67,2.07 1.25,4.14 1.75,6.27 0.11,0.52 0.91,0.3 0.8,-0.22 -0.5,-2.13 -1.08,-4.2 -1.74,-6.27 -0.17,-0.5 -0.97,-0.31 -0.81,0.22z"/>
  <path class="fil3" d="M107.63 55.81c7.41,0 14.8,0 22.22,0 0.52,0 0.52,-0.83 0,-0.83 -7.42,0 -14.81,0 -22.22,0 -0.53,0 -0.53,0.83 0,0.83z"/>
  <path class="fil3" d="M129.49 55.98c-0.28,1.52 -0.56,3.06 -0.83,4.58 -0.09,0.53 0.72,0.75 0.8,0.22 0.28,-1.52 0.55,-3.06 0.83,-4.58 0.08,-0.53 -0.72,-0.75 -0.8,-0.22z"/>
  <path class="fil3" d="M108.54 62.05c6.47,0 12.95,0 19.45,0 0.53,0 0.53,-0.83 0,-0.83 -6.47,0 -12.95,0 -19.45,0 -0.53,0 -0.53,0.83 0,0.83z"/>
  <path class="fil3" d="M130.65 55.81c3.02,-0.63 6,-1.27 9.02,-1.9 0.53,-0.11 0.31,-0.92 -0.22,-0.8 -3.02,0.63 -6.01,1.27 -9.02,1.9 -0.53,0.11 -0.31,0.91 0.22,0.8z"/>
  <path class="fil3" d="M129.27 61.8c2.79,0.45 5.39,2.02 7.94,3.21 2.71,1.27 5.39,2.54 8.11,3.81 0.47,0.22 0.91,-0.5 0.41,-0.72 -2.88,-1.35 -5.73,-2.68 -8.61,-4.03 -2.43,-1.16 -4.95,-2.62 -7.63,-3.07 -0.53,-0.08 -0.75,0.72 -0.22,0.8z"/>
  <path class="fil3" d="M108.79 63.32c3.6,14.81 7.16,29.64 10.76,44.44 0.14,0.52 0.92,0.3 0.81,-0.22 -3.6,-14.8 -7.17,-29.63 -10.77,-44.44 -0.14,-0.52 -0.94,-0.3 -0.8,0.22z"/>
  <path class="fil3" d="M128.1 64.32c-3.37,14.25 -6.17,28.66 -8.33,43.16 -0.08,0.53 0.72,0.75 0.81,0.22 2.15,-14.5 4.95,-28.88 8.33,-43.16 0.13,-0.53 -0.67,-0.75 -0.81,-0.22z"/>
  <path class="fil3" d="M128.38 36.67c1.25,-3.17 1.94,-6.51 2.05,-9.94 0.03,-0.52 -0.8,-0.52 -0.83,0 -0.11,3.34 -0.8,6.6 -2.02,9.72 -0.2,0.5 0.61,0.69 0.8,0.22z"/>
  <path class="fil3" d="M134.05 37.23c2.66,-3.01 5.65,-5.67 9,-7.9 0.44,-0.31 0.02,-1.02 -0.42,-0.72 -3.4,2.27 -6.47,4.97 -9.16,8.04 -0.36,0.38 0.22,0.96 0.58,0.58z"/>
  <path class="fil3" d="M139.5 42.34c3.44,-1.03 6.98,-1.41 10.55,-1.14 0.52,0.03 0.52,-0.8 0,-0.83 -3.65,-0.27 -7.25,0.11 -10.77,1.16 -0.49,0.17 -0.3,0.97 0.22,0.81z"/>
  <path class="fil0" d="M81.2 22.98c0.33,5.46 -2.74,10.68 -7.67,13.06 -0.27,0.14 -0.25,0.55 0,0.72 4.51,2.7 6.59,7.67 7.78,12.56 0.14,0.53 0.91,0.31 0.8,-0.22 -1.24,-5.11 -3.46,-10.27 -8.16,-13.06 0,0.25 0,0.47 0,0.72 5.17,-2.52 8.44,-8.07 8.08,-13.78 -0.03,-0.53 -0.86,-0.53 -0.83,0z"/>
  <path class="fil0" d="M81.5 22.98c-0.36,5.74 2.91,11.29 8.08,13.78 0,-0.25 0,-0.47 0,-0.72 -4.73,2.82 -6.94,7.98 -8.19,13.12 -0.14,0.52 0.66,0.74 0.8,0.22 1.19,-4.92 3.27,-9.92 7.81,-12.62 0.25,-0.14 0.27,-0.58 0,-0.72 -4.93,-2.38 -8.03,-7.6 -7.7,-13.06 0.06,-0.53 -0.77,-0.53 -0.8,0z"/>
  <path class="fil3" d="M216.24 230.29c0.97,-0.41 2.3,-1.02 3.82,-1.88 2.55,-1.4 3.82,-2.12 4.6,-3.25 0.99,-1.5 0.6,-2.3 1.9,-3.79 0.2,-0.25 1.11,-1.21 2.3,-1.74 2.05,-0.85 3.96,0.17 7.14,1.3 2.93,1.05 5.23,1.55 9.83,2.57 1.82,0.41 4.03,0.83 7.24,1.82 0.92,0.28 1.64,0.53 2.14,0.69 0.05,0.58 0.08,2.07 -0.89,3.43 -0.44,0.6 -1.05,1.1 -2.02,1.54 -2.24,1.05 -4.37,0.86 -6.17,0.77 -3.88,-0.16 -2.27,0.39 -11.4,0.56 -1.99,0.02 -3.63,0.02 -4.76,0.02 -1.41,0.97 -2.83,1.97 -4.26,2.99 -2.44,1.77 -4.76,3.53 -6.98,5.27 -0.83,-3.42 -1.66,-6.87 -2.49,-10.3z"/>
  <path class="fil2" d="M204.7 194.94c-1.99,1.05 -2.21,1.44 -9.63,7.73 -11.56,9.81 -12.84,10.33 -23.33,19.48 -10.04,8.72 -11.92,10.9 -13.83,13.78 -4.76,7.26 -5.81,13.33 -6.12,16.29 -0.41,3.98 -0.97,9.5 2.55,13.86 2.21,2.74 5.09,3.87 6.06,4.23 2.9,1.1 5.28,0.96 9.57,0.66 5.7,-0.41 10.05,-1.52 11.76,-1.99 1.89,-0.52 6.26,-1.82 11.74,-4.53 5.14,-2.54 7.36,-4.41 14.39,-9.14 3.13,-2.1 7.75,-5.16 13.56,-8.7 0.36,-2.76 0.05,-4.91 -0.25,-6.27 -0.72,-3.2 -2.19,-5.41 -3.82,-7.84 -1.33,-1.99 -2.6,-3.51 -3.49,-4.5 2.08,-1.57 4.79,-3.84 7.64,-6.88 1.91,-2.04 4.93,-5.3 7.44,-9.88 3.1,-5.64 6.2,-11.33 4.21,-15.25 -3.13,-6.16 -18.01,-6.43 -28.45,-1.05z"/>
  <path class="fil4" d="M229.5 197.95c-1.58,3.65 -4.18,8.81 -8.33,14.34 -6.03,7.98 -12.12,12.4 -21.31,18.94 -25.99,18.5 -32.96,22.73 -32.18,24.5 1.05,2.4 15.69,-1.91 17.82,-2.54 15.55,-4.59 27.01,-11.66 34.17,-16.82 -1.82,-2.79 -3.65,-5.58 -5.48,-8.34 2.25,-1.6 5.35,-4.15 8.25,-7.93 1.61,-2.07 4.04,-5.27 5.62,-10.11 1.6,-4.8 1.66,-9.08 1.44,-12.04z"/>
  <path class="fil3" d="M204.59 194.92c-9.85,7.31 -19.45,14.99 -28.7,23.03 -4.42,3.84 -8.85,7.67 -13,11.79 -3.68,3.64 -7.11,7.68 -9.19,12.48 -2.16,4.97 -2.77,10.72 -2.24,16.1 0.44,4.45 2.08,8.92 6.14,11.24 4.27,2.4 9.63,2.16 14.34,1.66 5.78,-0.58 11.48,-1.99 16.88,-4.17 12.04,-4.89 21.47,-14.03 32.85,-20.08 0.47,-0.25 0.05,-0.97 -0.42,-0.72 -9.49,5.06 -17.57,12.35 -27.09,17.4 -4.98,2.65 -10.35,4.59 -15.89,5.77 -5.11,1.08 -10.87,1.91 -16.07,0.92 -2.44,-0.47 -4.79,-1.47 -6.53,-3.29 -1.69,-1.8 -2.61,-4.14 -3.08,-6.55 -1.02,-5.22 -0.55,-11.13 1.17,-16.15 1.71,-5.03 5.06,-9.25 8.71,-13.01 3.79,-3.89 7.95,-7.48 12.01,-11.04 9.83,-8.62 20.01,-16.85 30.53,-24.64 0.41,-0.33 0.02,-1.05 -0.42,-0.74z"/>
  <path class="fil3" d="M177.47 251.53c9.08,-3.51 17.3,-8.76 25.1,-14.5 3.85,-2.82 7.64,-5.74 11.4,-8.67 3.71,-2.9 7.25,-5.97 10.13,-9.69 0.33,-0.42 -0.39,-0.83 -0.72,-0.42 -2.93,3.81 -6.61,6.88 -10.38,9.83 -3.7,2.9 -7.44,5.77 -11.26,8.56 -7.64,5.58 -15.63,10.72 -24.49,14.12 -0.5,0.16 -0.28,0.96 0.22,0.77z"/>
  <path class="fil3" d="M213.56 228.28c5.34,4.47 8.16,11.4 7.41,18.33 -0.05,0.53 0.78,0.53 0.84,0 0.74,-7.12 -2.19,-14.3 -7.67,-18.91 -0.39,-0.36 -0.97,0.22 -0.58,0.58z"/>
  <path class="fil3" d="M220.92 238.91c1.58,-0.47 2.96,-1.8 4.29,-2.74 1.66,-1.16 3.29,-2.32 4.95,-3.48 0.44,-0.3 0.03,-1.02 -0.41,-0.71 -1.5,1.05 -3.02,2.12 -4.51,3.17 -1.39,0.97 -2.91,2.46 -4.54,2.96 -0.53,0.14 -0.31,0.94 0.22,0.8z"/>
  <path class="fil3" d="M216.35 230.68c3.13,-1.3 6.01,-3.07 8.61,-5.25 0.41,-0.36 -0.2,-0.94 -0.58,-0.58 -2.47,2.1 -5.23,3.78 -8.22,5.03 -0.5,0.22 -0.28,1.02 0.19,0.8z"/>
  <path class="fil3" d="M224.66 225.07c0.52,0 0.52,-0.83 0,-0.83 -0.53,0 -0.53,0.83 0,0.83z"/>
  <path class="fil3" d="M225.65 224.08c0.47,-1.11 0.97,-2.32 1.86,-3.18 1.19,-1.16 2.62,-0.99 4.15,-0.66 2.82,0.63 5.59,1.52 8.35,2.32 2.58,0.72 5.15,1.35 7.81,1.66 1.55,0.16 2.85,0.36 4.23,1.05 1.02,0.49 1.91,0.99 3.05,1.1 0.52,0.06 0.52,-0.77 0,-0.83 -1.53,-0.14 -2.72,-1.19 -4.16,-1.66 -1.43,-0.46 -3.04,-0.44 -4.53,-0.69 -3.27,-0.52 -6.45,-1.51 -9.61,-2.45 -1.55,-0.45 -3.1,-0.89 -4.67,-1.25 -1.17,-0.25 -2.38,-0.55 -3.55,-0.19 -2.02,0.61 -2.98,2.76 -3.73,4.56 -0.19,0.49 0.61,0.72 0.8,0.22z"/>
  <path class="fil3" d="M230.05 233.3c5.92,-0.88 11.79,-1.02 17.77,-1.13 2.07,-0.03 4.29,-0.28 5.95,-1.63 1.41,-1.16 2.21,-2.84 1.82,-4.64 -0.11,-0.52 -0.91,-0.3 -0.8,0.22 0.53,2.51 -1.74,4.37 -3.98,4.92 -2.3,0.55 -4.79,0.27 -7.14,0.33 -4.65,0.08 -9.25,0.47 -13.84,1.16 -0.53,0.05 -0.28,0.85 0.22,0.77z"/>
  <path class="fil3" d="M251.06 227.81c2.04,-1.47 4.12,-2.93 6.17,-4.39 0.13,-0.94 0.58,-2.99 2.27,-4.73 0.49,-0.52 1.66,-1.74 3.4,-2.07 1.83,-0.36 3.24,0.47 4.81,1.19 2.55,1.16 5.01,1.6 9.88,2.54 3.85,0.72 5.79,1.08 8.55,0.94 3.77,-0.22 6.45,-1.22 8.06,0.36 0.16,0.16 0.85,0.91 0.8,1.82 -0.08,1.16 -1.33,1.91 -2.33,2.49 -4.34,2.48 -6.77,3.2 -6.77,3.2 -6.15,1.79 -9.25,2.71 -11.9,2.93 -2.16,0.16 -5.23,0.24 -8.94,-0.34 -1.08,3.71 -4.35,6.08 -7.42,5.89 -3.96,-0.25 -7.61,-4.7 -6.58,-9.83z"/>
  <path class="fil2" d="M211.32 203.39c0.61,-1.85 1.74,-4.19 3.87,-4.97 1.39,-0.49 2.66,-0.16 3.07,-0.05 2.58,0.63 7.86,-0.28 18.4,-2.07 5.24,-0.89 11.85,-2.19 19.46,-4.12 0.03,1.41 0,3.26 -0.08,5.41 -0.2,4.84 -0.7,8.48 -0.81,9.34 -0.47,3.42 -1.3,9.11 -3.81,16.01 -0.64,1.77 -1.28,3.24 -1.72,4.23 1.08,0.5 2.24,1.16 3.37,2.1 4.68,3.73 6.04,9 6.48,11.24 -0.66,0.8 -1.66,1.99 -2.93,3.34 -5.15,5.47 -9.91,8.53 -18.99,14.14 -5.59,3.45 -9.68,5.97 -16.24,9.83 -7.97,4.7 -14.42,8.34 -22.44,10.63 -2,0.58 -5.15,1.36 -9.14,0.94 -1.93,-0.19 -5.42,-0.55 -8.77,-2.98 -4.29,-3.09 -5.64,-7.62 -6.2,-9.61 -1.24,-4.45 -0.77,-8.62 0.39,-12.95 0.8,-3.04 3.71,-13.12 13.81,-24.47 2.02,-2.26 7.78,-7.37 19.23,-17.59 2.77,-2.46 5.04,-4.47 6.56,-5.8 -1.16,-0.88 -2.32,-1.74 -3.51,-2.6z"/>
  <path class="fil4" d="M248.95 195.74c-0.64,2.43 -1.66,5.94 -3.21,10.06 -14.14,37.39 -45.74,53.54 -43.17,57.58 1.88,2.98 19.93,-4.45 32.93,-12.27 9.74,-5.85 16.99,-12.12 21.84,-16.84 -0.78,-1.13 -1.97,-2.68 -3.77,-4.14 -1.74,-1.41 -3.4,-2.27 -4.65,-2.79 0.86,-1.25 2,-3.12 2.97,-5.53 0.63,-1.54 1.18,-3.2 1.9,-6.57 1.17,-5.33 1.64,-9.55 1.78,-10.88 0.33,-3.18 0.63,-7.29 0.58,-12.15 -2.41,1.16 -4.79,2.35 -7.2,3.53z"/>
  <path class="fil3" d="M255.73 192.18c0.03,5.22 -0.3,10.44 -1.02,15.63 -0.67,4.67 -1.5,9.47 -3.21,13.89 -1.86,4.78 -5.04,8.26 -8.89,11.55 -3.92,3.34 -7.88,6.62 -11.84,9.91 -4.54,3.78 -9.1,7.54 -13.64,11.32 -0.42,0.33 0.16,0.91 0.58,0.58 8.33,-6.9 16.66,-13.78 24.93,-20.76 3.66,-3.1 6.98,-6.3 8.97,-10.75 1.93,-4.31 2.88,-9.03 3.62,-13.67 0.94,-5.85 1.39,-11.76 1.33,-17.7 0,-0.55 -0.83,-0.55 -0.83,0z"/>
  <path class="fil3" d="M211.79 204.17c1.13,0.6 2.27,1.21 3.43,1.82 0.47,0.25 0.88,-0.47 0.41,-0.72 -1.13,-0.61 -2.27,-1.21 -3.43,-1.82 -0.47,-0.25 -0.88,0.47 -0.41,0.72z"/>
  <path class="fil3" d="M215.22 205.66c-9.85,8.01 -20.2,15.93 -28.42,25.65 -7.09,8.37 -12.93,18.98 -12.9,30.22 0,4.94 1.36,10.1 5.01,13.61 3.65,3.54 8.94,4.92 13.92,4.67 6.09,-0.31 11.87,-2.71 17.3,-5.36 5.81,-2.84 11.31,-6.21 16.85,-9.55 11.4,-6.91 24.13,-13.34 32.68,-23.87 0.33,-0.41 -0.25,-0.99 -0.58,-0.58 -7.17,8.84 -17.24,14.5 -26.84,20.3 -5.29,3.21 -10.52,6.46 -15.91,9.5 -5.29,2.99 -10.8,5.83 -16.64,7.51 -5.48,1.58 -11.59,1.91 -16.77,-0.82 -4.98,-2.6 -7.52,-7.63 -8.05,-13.09 -1.02,-11.05 4.54,-22.04 11.26,-30.44 8.39,-10.47 19.35,-18.8 29.7,-27.2 0.38,-0.3 -0.2,-0.88 -0.61,-0.55z"/>
  <path class="fil3" d="M249.51 227.5c5.2,2.49 8.82,7.4 9.68,13.09 0.08,0.53 0.89,0.31 0.8,-0.22 -0.85,-5.88 -4.67,-11.04 -10.04,-13.59 -0.5,-0.22 -0.91,0.5 -0.44,0.72z"/>
  <path class="fil3" d="M251.17 228.22c1.1,-0.44 1.99,-1.19 2.93,-1.91 1.11,-0.85 2.24,-1.68 3.35,-2.54 0.41,-0.33 0,-1.04 -0.42,-0.71 -0.99,0.74 -1.99,1.49 -2.99,2.26 -0.97,0.75 -1.93,1.66 -3.1,2.1 -0.47,0.19 -0.27,0.99 0.23,0.8z"/>
  <path class="fil3" d="M257.86 223.44c0.56,-1.63 1.22,-3.23 2.11,-4.72 1.21,-2.04 3.04,-1.82 5.09,-1.3 3.18,0.8 6.23,2.02 9.43,2.74 6.23,1.38 12.62,1.85 18.99,1.43 0.52,-0.02 0.52,-0.85 0,-0.83 -7.5,0.5 -15.06,-0.27 -22.31,-2.32 -1.74,-0.49 -3.43,-1.13 -5.17,-1.63 -1.33,-0.38 -2.91,-0.82 -4.29,-0.55 -1.25,0.25 -1.97,1.19 -2.57,2.24 -0.86,1.49 -1.53,3.09 -2.08,4.72 -0.17,0.5 0.64,0.72 0.8,0.22z"/>
  <path class="fil3" d="M259.05 236.78c2.08,-1.57 4.13,-3.15 6.2,-4.72 0.42,-0.33 0,-1.05 -0.41,-0.72 -2.08,1.57 -4.13,3.15 -6.2,4.72 -0.42,0.33 0,1.05 0.41,0.72z"/>
  <path class="fil3" d="M265.22 231.87c6.76,1.46 13.65,0.35 20.04,-2.07 2.9,-1.11 6.23,-2.35 8.72,-4.23 1.74,-1.3 1.99,-3.78 -0.31,-4.67 -0.5,-0.19 -0.72,0.61 -0.22,0.8 1.24,0.47 1.38,1.83 0.53,2.76 -0.42,0.48 -1,0.78 -1.55,1.11 -1.14,0.63 -2.3,1.21 -3.46,1.77 -2.47,1.16 -5.01,2.15 -7.64,2.92 -5.18,1.49 -10.6,1.99 -15.91,0.83 -0.5,-0.14 -0.72,0.66 -0.2,0.78z"/>
  <path class="fil1" d="M193.11 112.59c4.2,-3.48 10.49,-7.68 18.87,-10.16 3.93,-1.16 8.86,-2.6 15.39,-2.04 10.01,0.85 16.9,5.77 19.34,7.56 3.82,2.79 6.42,5.75 8.03,7.82 0.3,19.36 0.71,38.74 1.24,58.1 0.17,5.97 0.33,11.96 0.53,17.93 -3.93,2.43 -9.44,5.16 -16.41,6.76 -16.33,3.73 -29.92,-1.24 -35.43,-3.64 -0.02,-4.89 -0.33,-12.24 -1.82,-21.05 -2.44,-14.47 -6.23,-20.3 -8.61,-32.75 -1.19,-6.44 -2.32,-16.1 -1.13,-28.53z"/>
  <path class="fil2" d="M243.14 117.37c-1.36,1.49 -1.6,3.17 -1.52,9.64 0.05,6.79 0.41,11.43 0.64,16.82 0.16,3.89 0.3,6.98 0.22,11.01 -0.09,5.08 -0.42,9.26 -0.72,12.05 -2.71,3.03 -5.12,5.41 -6.92,7.12 -4.04,3.84 -8.44,7.98 -14.94,11.88 -2.58,1.51 -4.79,2.62 -6.29,3.31 -1.35,-0.22 -2.87,-0.55 -4.53,-0.97 -3.94,-0.99 -5.57,-1.88 -8.53,-1.88 -0.88,0 -3.68,0 -3.96,1 -0.24,0.83 1.3,2.12 2.52,2.76 1.14,0.58 1.63,0.41 2.77,0.94 1.27,0.61 2.1,1.49 2.6,2.15 -0.52,0.75 -1.33,1.88 -2.21,3.34 -1.03,1.72 -1.25,2.38 -2.44,4.42 -1.24,2.16 -1.88,3.23 -2.43,3.79 -0.86,0.8 -1.39,0.96 -5.23,2.68 -3.82,1.71 -4.49,2.09 -4.49,2.56 0,0.47 0.75,0.58 3.71,1.85 2.41,1.03 2.63,1.25 3.88,1.61 1.55,0.44 2.49,0.71 3.62,0.46 1.8,-0.35 2.96,-1.71 3.46,-2.43 0.25,0.23 0.86,0.7 1.66,0.72 0.64,0 1.16,-0.25 1.58,-0.58 1.74,-1.24 2.6,-3.53 4.32,-6.1 0.3,-0.44 1.38,-2.07 3.12,-3.89 1.08,-1.16 2.08,-2.02 2.8,-2.6 0.97,-0.22 2.4,-0.55 4.12,-1.05 6.67,-1.9 11.48,-4.2 15.53,-6.13 2.35,-1.13 5,-2.62 10.29,-5.58 4.59,-2.57 6.97,-4 9.08,-6.82 0.22,-0.3 1.35,-1.82 2.35,-4.06 0.3,-0.69 1.38,-3.15 1.96,-7.45 0.28,-1.91 0.28,-2.96 0.31,-8.93 0.05,-7.59 0.05,-6.68 0.05,-7.45 -0.02,-11.13 -0.61,-10.14 -0.8,-20.36 -0.03,-0.96 -0.05,-3.59 -0.86,-6.9 -0.86,-3.59 -1.93,-5.19 -2.54,-5.99 -0.78,-1.02 -1.72,-2.24 -3.32,-2.93 -2.94,-1.3 -6.84,-0.25 -8.86,1.99z"/>
  <path class="fil5" d="M252.02 115.35c0.67,2.18 1.47,5.33 2.02,9.14 0.67,4.62 0.92,9.7 -0.58,22.98 -1.24,11.1 -1.85,16.65 -3.46,21.84 -2.29,7.41 -3.95,12.79 -9.02,17.04 -3.26,2.74 -6.83,4.01 -14,6.52 -5.26,1.85 -9.77,2.96 -12.87,3.65 -2.21,2.98 -5.51,6.76 -10.18,10.35 -3.66,2.82 -7.17,4.75 -10.07,6.08 0.41,0.27 2.13,1.38 4.45,1.08 2.71,-0.36 4.18,-2.3 4.43,-2.66 0.52,0.39 1.3,0.81 2.16,0.67 1.77,-0.28 2.71,-2.79 3.18,-3.93 1.02,-2.34 3.07,-5.57 7.66,-9.11 3.05,-0.8 7.17,-2.01 11.96,-3.84 6.67,-2.56 11.15,-5.05 15.97,-7.73 7.72,-4.31 9.46,-6.07 10.73,-7.79 2.33,-3.12 3.3,-6.32 3.71,-7.73 0.75,-2.51 0.89,-5.33 1.16,-10.83 0.2,-4.08 0.2,-7.23 0.2,-9.61 0,-4.08 -0.09,-7.12 -0.17,-9.74 -0.11,-3.81 -0.33,-8.29 -0.88,-13.65 -0.42,-3.89 -0.72,-5.44 -1.61,-7.18 -1.36,-2.76 -3.37,-4.52 -4.79,-5.55z"/>
  <path class="fil3" d="M242.73 117.26c-1.44,3.59 -1.61,7.45 -1.53,11.29 0.09,4.23 0.31,8.43 0.5,12.65 0.39,8.56 0.67,17.15 -0.36,25.69 -0.05,0.52 0.78,0.52 0.83,0 1,-8.34 0.78,-16.77 0.39,-25.14 -0.19,-4.14 -0.42,-8.28 -0.53,-12.45 -0.11,-4.01 -0.02,-8.04 1.5,-11.82 0.19,-0.5 -0.61,-0.72 -0.8,-0.22z"/>
  <path class="fil3" d="M242.95 166.17c-2.55,1.41 -4.6,3.45 -6.56,5.58 -2.13,2.29 -4.26,4.52 -6.64,6.57 -4.87,4.22 -10.35,7.7 -16.22,10.41 -0.5,0.22 -0.06,0.94 0.42,0.72 5.64,-2.6 10.93,-5.91 15.66,-9.92 2.35,-1.96 4.51,-4.11 6.58,-6.35 2.16,-2.35 4.32,-4.72 7.14,-6.27 0.5,-0.3 0.09,-1.02 -0.38,-0.74z"/>
  <path class="fil3" d="M213.72 188.78c-3.04,-0.63 -6.11,-1.29 -9.16,-1.98 -1.52,-0.33 -3.07,-0.75 -4.62,-1.03 -0.97,-0.16 -1.99,-0.24 -2.85,0.31 -1.33,0.85 -1.33,2.43 -0.14,3.37 0.86,0.69 1.97,0.99 2.99,1.32 1.66,0.53 3.07,1.19 4.15,2.6 0.34,0.41 1.05,0 0.72,-0.42 -0.96,-1.24 -2.13,-2.12 -3.62,-2.65 -1.03,-0.36 -2.16,-0.58 -3.1,-1.1 -0.67,-0.36 -1.52,-0.91 -1.03,-1.91 0.48,-0.94 1.67,-0.85 2.52,-0.71 2.3,0.33 4.6,0.99 6.89,1.51 2.36,0.53 4.71,1.03 7.06,1.52 0.5,0.09 0.72,-0.72 0.19,-0.83z"/>
  <path class="fil3" d="M203.43 193.51c-1.22,2.23 -2.46,4.44 -3.68,6.68 -0.61,1.08 -1.14,2.24 -1.86,3.29 -0.74,1.07 -1.74,1.63 -2.9,2.18 -2.19,1.02 -4.54,1.85 -6.64,3.03 -0.94,0.56 -1.55,1.55 -0.75,2.52 1,1.19 2.96,0.72 4.29,0.5 1.83,-0.31 3.57,-0.92 5.23,-1.69 3.46,-1.66 6.39,-4.25 8.5,-7.46 0.3,-0.44 -0.42,-0.85 -0.72,-0.41 -1.86,2.87 -4.43,5.19 -7.45,6.79 -1.44,0.75 -2.99,1.36 -4.56,1.72 -0.89,0.22 -1.83,0.41 -2.77,0.44 -0.86,0.05 -1.08,0.16 -1.5,-0.69 -0.52,-0.5 -0.47,-0.83 0.14,-1 0.2,-0.08 0.36,-0.16 0.56,-0.25 1.77,-0.82 3.57,-1.62 5.34,-2.45 1.38,-0.64 2.74,-1.19 3.68,-2.43 1.1,-1.47 1.88,-3.21 2.76,-4.81 1.03,-1.85 2.05,-3.7 3.05,-5.52 0.25,-0.5 -0.47,-0.91 -0.72,-0.44z"/>
  <path class="fil3" d="M216.08 199.56c7.39,-2.08 14.55,-4.84 21.41,-8.26 3.41,-1.72 6.73,-3.56 9.97,-5.61 2.9,-1.82 5.98,-3.67 8.05,-6.46 0.3,-0.44 -0.41,-0.86 -0.72,-0.41 -2.16,2.92 -5.53,4.83 -8.58,6.71 -3.1,1.9 -6.31,3.67 -9.57,5.3 -6.67,3.28 -13.62,5.94 -20.79,7.95 -0.49,0.11 -0.27,0.91 0.23,0.78z"/>
  <path class="fil3" d="M243.28 118c2.3,-4.5 8.19,-3.48 11.1,-0.27 3.48,3.86 3.65,9.53 4.04,14.44 0.83,10.74 0.99,21.57 0.33,32.31 -0.33,5.22 -1.11,10.74 -4.6,14.89 -0.33,0.41 0.25,0.99 0.59,0.58 3.12,-3.76 4.2,-8.51 4.64,-13.26 0.59,-6.07 0.59,-12.23 0.53,-18.34 -0.06,-6.38 -0.36,-12.78 -0.94,-19.13 -0.44,-4.78 -1.3,-10.06 -5.26,-13.23 -3.38,-2.71 -9.02,-2.63 -11.18,1.6 -0.22,0.47 0.5,0.88 0.75,0.41z"/>
  <path class="fil3" d="M191.14 212.18c2.02,0.91 4.46,2.29 6.75,2.29 2.22,-0.03 3.85,-1.85 5.35,-3.23 4.29,-3.98 8.57,-7.96 12.86,-11.91 0.39,-0.36 -0.19,-0.94 -0.58,-0.58 -3.62,3.37 -7.25,6.71 -10.87,10.08 -1.61,1.47 -3.27,3.57 -5.29,4.48 -2.38,1.08 -5.64,-0.86 -7.77,-1.83 -0.5,-0.24 -0.92,0.47 -0.45,0.7z"/>
  <path class="fil3" d="M202.41 211.6c0.91,1.71 2.93,1.02 3.95,-0.17 2.02,-2.38 3.6,-5.25 5.32,-7.82 0.3,-0.44 -0.42,-0.85 -0.72,-0.41 -1.08,1.6 -2.16,3.2 -3.24,4.81 -0.61,0.88 -3.29,5.66 -4.6,3.17 -0.24,-0.47 -0.96,-0.05 -0.71,0.42z"/>
  <path class="fil3" d="M195.99 210.24c0.83,0.45 1.85,0.89 2.76,0.45 0.47,-0.25 0.67,-0.64 0.89,-1.08 0.39,-0.75 0.77,-1.33 1.49,-1.8 0.45,-0.3 0.03,-1.02 -0.41,-0.72 -0.67,0.45 -1.22,1 -1.61,1.72 -0.27,0.52 -0.44,1.16 -1.16,1.21 -0.53,0.06 -1.11,-0.27 -1.55,-0.5 -0.44,-0.22 -0.89,0.47 -0.41,0.72z"/>
  <path class="fil2" d="M190.31 52.44c-0.97,1.96 -1.93,5.25 -2.24,6.33 -0.44,1.54 -1.44,5.16 -1.99,9.97 -0.31,2.65 -0.64,5.55 -0.36,9.39 0.14,1.82 0.33,4.69 1.41,8.25 0.72,2.43 1.77,5.94 4.62,9.53 2.49,3.12 5.34,5.08 7.61,6.27 1.44,0.03 3.18,-0.05 5.12,-0.41 3.49,-0.67 6.2,-1.97 8.03,-3.01 0.25,1.4 0.58,2.9 0.99,4.44 0.86,3.21 1.91,6.02 2.96,8.45 1.14,-0.19 2.49,-0.52 3.93,-1.19 4.57,-2.12 6.75,-6.04 7.53,-7.67 -0.41,-1.6 -0.75,-3.34 -1.05,-5.14 -1.05,-6.71 -0.78,-12.7 -0.11,-17.56 0.58,0.19 1.52,0.44 2.68,0.38 2.27,-0.13 3.82,-1.38 4.6,-2.04 0.66,-0.55 3.68,-3.23 3.57,-7.21 -0.03,-0.94 -0.09,-3.23 -1.72,-4.47 -1.52,-1.13 -3.57,-0.72 -5.06,-0.42 -1.72,0.36 -2.99,1.08 -3.77,1.58 0.58,-1.91 1.8,-6.8 0,-12.48 -0.38,-1.22 -2.96,-8.95 -10.54,-12.29 -10.29,-4.59 -22.66,2.21 -26.21,9.3z"/>
  <path class="fil6" d="M221.58 52.61c0.22,2.57 0.39,6.3 0,10.71 -1.19,13.4 -6.5,22.7 -7.88,25.02 -2.11,3.54 -5.7,8.68 -11.46,13.73 1.72,-0.22 3.68,-0.61 5.78,-1.35 5.79,-2.05 9.66,-5.56 11.76,-7.85 0.17,3.07 0.7,6.8 1.94,10.88 0.56,1.74 1.16,3.35 1.8,4.78 1.47,-1.9 2.91,-3.81 4.37,-5.74 -0.3,-1.8 -0.58,-3.7 -0.77,-5.66 -0.64,-5.94 -0.64,-11.41 -0.31,-16.27 1.25,0.03 3.05,-0.08 4.96,-0.83 8.35,-3.31 13.11,-16.49 8.6,-23.67 -0.19,-0.3 -1.19,-1.85 -3.24,-3.23 -6.33,-4.25 -14.38,-1.02 -15.55,-0.52z"/>
  <path class="fil1" d="M188.29 57.94c-0.55,-1.91 -1.33,-5.55 -0.52,-10.03 0.25,-1.38 1.1,-5.82 4.15,-9.33 4.45,-5.11 10.04,-4.14 17.29,-6.74 4.6,-1.63 10.91,-5.05 17.3,-13.12 -0.58,2.99 -1.16,6 -1.75,8.98 1,0.27 4.35,0.99 7.78,-0.69 5.7,-2.79 6.2,-9.53 6.23,-9.83 0.69,1.54 1.94,4.97 1.38,9.33 -0.39,2.98 -1.46,5.22 -2.24,6.57 0.33,0.36 2.1,2.19 4.15,1.91 2.49,-0.33 4.82,-3.73 4.15,-8.12 0.56,1.63 1.22,4.31 1.05,7.59 -0.22,4.01 -1.55,7.02 -2.43,8.65 0.22,0.19 1.63,1.46 3.62,1.21 1.75,-0.22 3.24,-1.49 3.82,-3.28 -0.14,1.85 -0.47,4.53 -1.55,7.59 -1.46,4.14 -2.68,4.48 -3.29,7.43 -0.97,4.64 1.52,6.21 0.86,10.36 -0.56,3.48 -2.83,5.66 -5.7,8.45 -5.23,5.05 -11.24,7.78 -16.27,9.3 0.22,-1.54 0.47,-3.09 0.69,-4.64 0.63,0.39 1.74,0.92 3.12,0.86 2.83,-0.11 4.6,-2.62 5.54,-3.98 1.08,-1.52 2.88,-4.11 1.91,-6.9 -0.8,-2.27 -2.94,-3.2 -3.13,-3.29 -2.49,-1.05 -5.7,-0.11 -7.77,2.43 -1.17,-4.55 -2.3,-9.08 -3.46,-13.64 -3.93,-2.48 -7.84,-4.94 -11.77,-7.43 -1.93,-0.36 -7.22,-1.08 -13.14,1.55 -5.98,2.65 -9.02,7.15 -10.02,8.81z"/>
  <path class="fil3" d="M187.88 57.83c-2.35,8.78 -3.77,18.11 -1.61,27.09 1.77,7.29 6.26,15.6 13.89,17.98 0.5,0.16 0.72,-0.64 0.23,-0.8 -7.67,-2.38 -11.96,-11.02 -13.54,-18.31 -1.85,-8.56 -0.44,-17.4 1.8,-25.74 0.17,-0.5 -0.63,-0.72 -0.77,-0.22z"/>
  <path class="fil3" d="M200.77 102.76c12.76,-1.3 23.41,-10.49 26.4,-22.98 0.11,-0.52 -0.66,-0.74 -0.8,-0.22 -2.9,12.07 -13.17,21.1 -25.6,22.37 -0.52,0.06 -0.55,0.88 0,0.83z"/>
  <path class="fil3" d="M226.45 80c5.71,3.48 11.27,-3.81 11.63,-8.92 0.19,-2.7 -1.06,-4.77 -3.74,-5.55 -2.49,-0.71 -5.2,0.03 -6.97,1.91 -0.36,0.38 0.22,0.96 0.58,0.58 1.46,-1.58 3.68,-2.27 5.81,-1.8 1.11,0.25 2.32,0.86 2.96,1.85 0.69,1.08 0.61,2.57 0.44,3.76 -0.66,4.28 -5.42,10.41 -10.29,7.43 -0.44,-0.25 -0.89,0.47 -0.42,0.74z"/>
  <path class="fil3" d="M226.4 79.95c-1.08,7.65 -0.69,15.41 1.13,22.92 0.14,0.52 0.94,0.3 0.81,-0.22 -1.8,-7.37 -2.19,-15 -1.14,-22.48 0.06,-0.52 -0.75,-0.75 -0.8,-0.22z"/>
  <path class="fil3" d="M212.09 98.87c0.86,4.47 2.19,8.81 4.01,13 0.23,0.5 0.94,0.06 0.72,-0.41 -1.8,-4.12 -3.1,-8.4 -3.93,-12.82 -0.11,-0.52 -0.88,-0.3 -0.8,0.23z"/>
  <path class="fil3" d="M216.69 111.98c5.34,-0.85 9.85,-4.53 11.87,-9.52 0.19,-0.5 -0.61,-0.72 -0.81,-0.22 -1.9,4.75 -6.25,8.14 -11.29,8.94 -0.52,0.09 -0.3,0.89 0.23,0.8z"/>
  <path class="fil3" d="M212.76 99.83c1.13,0.06 1.9,-0.72 2.76,-1.38 1.14,-0.88 2.22,-1.82 3.21,-2.81 1.86,-1.86 3.35,-3.98 4.32,-6.41 0.19,-0.5 -0.61,-0.72 -0.8,-0.22 -0.86,2.15 -2.19,4.06 -3.79,5.71 -0.72,0.78 -1.5,1.47 -2.3,2.16 -0.89,0.74 -2.16,2.18 -3.4,2.12 -0.53,-0.02 -0.53,0.8 0,0.83z"/>
  <path class="fil3" d="M212.81 99.39c2.35,-1.52 4.54,-3.26 6.59,-5.16 0.38,-0.36 -0.2,-0.97 -0.58,-0.58 -2,1.87 -4.13,3.56 -6.42,5.05 -0.47,0.25 -0.03,0.97 0.41,0.69z"/>
  <path class="fil3" d="M196.54 59.43c-1.55,7.04 -2.44,14.2 -2.63,21.4 0,0.42 0.55,0.56 0.78,0.22 1.07,-1.71 2.15,-3.45 3.23,-5.16 0.28,-0.44 -0.44,-0.88 -0.72,-0.42 -1.08,1.72 -2.16,3.46 -3.23,5.17 0.24,0.08 0.52,0.14 0.77,0.22 0.19,-7.12 1.08,-14.22 2.6,-21.18 0.11,-0.55 -0.69,-0.77 -0.8,-0.25z"/>
  <path class="fil3" d="M197.65 91.22c-0.67,-1.25 -1.11,-2.57 -1.22,-3.98 -0.08,-0.99 0.14,-5.03 2.02,-3.43 0.99,0.86 0.86,2.74 0.88,3.98 0,0.58 0,1.19 -0.05,1.77 -0.03,0.41 -0.08,0.83 -0.17,1.21 -0.72,0.5 -1.27,0.47 -1.63,-0.05 -0.36,-0.39 -0.97,0.19 -0.58,0.58 1.19,1.21 2.74,1.27 3.07,-0.64 0.25,-1.35 0.25,-2.78 0.14,-4.14 -0.08,-1.08 -0.08,-2.62 -0.89,-3.45 -1.19,-1.22 -2.87,-0.08 -3.34,1.21 -0.86,2.32 -0.03,5.25 1.07,7.35 0.23,0.47 0.94,0.06 0.7,-0.41z"/>
  <path class="fil3" d="M203.37 66.36c0.83,3.9 5.95,4.2 7.48,0.61 0.19,-0.5 -0.61,-0.72 -0.81,-0.22 -1.24,2.93 -5.23,2.37 -5.86,-0.61 -0.11,-0.5 -0.92,-0.3 -0.81,0.22z"/>
  <path class="fil3" d="M201.74 56.78c1.05,-2.35 3.76,-3.48 6.26,-2.96 2.57,0.56 4.53,2.54 5.81,4.73 0.27,0.46 0.99,0.05 0.72,-0.42 -1.47,-2.51 -3.79,-4.75 -6.78,-5.19 -2.69,-0.39 -5.57,0.88 -6.73,3.4 -0.22,0.52 0.5,0.94 0.72,0.44z"/>
  <path class="fil3" d="M185.53 57.69c0.74,-1.55 2.04,-3.23 3.95,-3.2 1.83,0.02 3.16,1.63 4.07,3.03 0.28,0.45 1,0.03 0.72,-0.41 -1.05,-1.68 -2.63,-3.42 -4.79,-3.45 -2.21,-0.03 -3.76,1.79 -4.65,3.62 -0.24,0.47 0.47,0.88 0.7,0.41z"/>
  <path class="fil3" d="M190.42 70.2c0.49,0 0.89,-1.82 0.89,-4.06 0,-2.24 -0.4,-4.06 -0.89,-4.06 -0.49,0 -0.88,1.82 -0.88,4.06 0,2.24 0.39,4.06 0.88,4.06z"/>
  <path class="fil2" d="M192.97 113.89c-0.08,1.02 -0.2,2.43 -0.25,4.06 -0.25,5.58 -0.03,9.8 0.05,10.94 0.23,3.67 0.73,8.47 1.89,14.05 -1.11,1.27 -2.77,3.15 -4.9,5.36 -4.04,4.22 -6.12,6.38 -9.44,8.62 -3.71,2.48 -6.28,3.25 -7.66,3.61 -1.75,0.42 -3.41,0.8 -5.43,0.36 -3.29,-0.74 -5.25,-3.17 -5.97,-4.11 -1.83,-2.32 -2.25,-4.59 -2.99,-9.01 -0.56,-3.23 -0.67,-5.68 -0.83,-10.43 -0.09,-2.27 -0.2,-5.03 -0.14,-8.73 0.05,-4.17 0.28,-9.11 0.88,-14.64 0.28,-2.48 0.67,-5.55 1.28,-9.03 -0.47,-0.66 -0.97,-1.32 -1.5,-2.02 -0.55,-0.71 -1.08,-1.4 -1.63,-2.09 -1.41,1.18 -2.79,2.4 -4.21,3.59 -0.36,0.13 -0.99,0.36 -1.77,0.27 -1.46,-0.14 -2.32,-1.16 -2.63,-1.49 -1.35,-1.54 -1.16,-3.51 -1.1,-3.89 1.91,-2.07 3.82,-4.12 5.75,-6.19 0.03,-1.19 0.2,-2.73 0.67,-4.44 0.36,-1.27 0.8,-2.32 1.21,-3.21 0.36,-0.72 0.86,-1.52 1.5,-2.32 1.13,-1.49 2.35,-2.54 3.35,-3.26 -0.81,0.36 -1,0.36 -1.05,0.31 -0.14,-0.22 1.16,-1.85 2.99,-2.02 1.02,-0.11 1.82,0.28 2.37,0.53 0.86,0.41 1.44,0.94 1.8,1.32 1.72,-1.46 3.43,-2.93 5.15,-4.36 0.61,0.36 1.22,0.77 1.83,1.19 1.41,0.96 2.68,1.93 3.82,2.87 -0.42,0.52 -0.94,1.1 -1.61,1.68 -1.11,0.97 -2.21,1.55 -3.07,1.94 0.53,0.16 1.47,0.55 1.94,1.46 0.47,0.88 0.27,1.85 0,3.07 -0.2,0.82 -0.45,1.49 -0.64,1.93 0.11,1.16 0.17,2.73 -0.17,4.5 -0.52,2.9 -1.74,5.05 -2.57,6.3 -0.03,1.07 -0.06,2.76 0,4.83 0.22,8.53 1.47,13.53 2.27,19.83 0.47,3.59 0.94,8.92 0.8,15.63 0.64,-0.42 1.55,-1.08 2.58,-1.94 2.6,-2.18 4.26,-4.36 6.44,-7.56 2.16,-3.12 3.57,-5.44 5.48,-8.54 1.19,-2.01 3.1,-5.08 5.51,-8.97z"/>
  <path class="fil6" d="M167.81 88.68c-0.58,1.27 -1.16,2.56 -1.74,3.89 -1.69,3.98 -3.07,7.79 -4.2,11.43 -0.25,5.75 -0.39,10.55 -0.5,14.03 -0.14,5.28 0.19,11.57 0.8,24.17 0.25,5.19 0.47,8.34 2.91,10.63 2.54,2.37 6.08,2.43 8.07,2.43 10.63,-0.03 18.57,-9.06 20.76,-11.68 -2.96,5.02 -6.34,8.31 -8.63,10.24 -2.61,2.18 -5.95,4.92 -11.16,6.27 -4.4,1.16 -6.39,0.91 -6.91,0.8 -3.8,-0.91 -5.9,-4.06 -6.65,-5.13 -1.8,-2.68 -2.38,-5.47 -2.71,-11.46 -0.33,-6.16 0.03,-7.79 0.14,-16.27 0.08,-8.09 -0.22,-10.39 0.39,-15.99 0.36,-3.29 0.8,-5.99 1.16,-7.82 -1.08,-1.13 -2.16,-2.26 -3.24,-3.37 -0.91,0.81 -1.85,1.58 -2.79,2.38 -0.61,0.52 -1.25,1.05 -1.86,1.55 -0.55,0.05 -1.35,0.02 -2.21,-0.34 -2.21,-0.94 -3.6,-3.67 -2.91,-4.61 0.45,-0.63 1.61,-0.14 3.21,-0.14 2.77,0.03 4.63,-1.38 8.31,-4.03 2.6,-1.9 5.59,-4.03 9.76,-6.98z"/>
  <path class="fil3" d="M192.61 113.67c-6.39,8.81 -11.13,18.91 -19.21,26.43 -0.38,0.36 0.2,0.94 0.59,0.58 8.13,-7.57 12.89,-17.73 19.34,-26.6 0.33,-0.41 -0.39,-0.83 -0.72,-0.41z"/>
  <path class="fil3" d="M168.81 161.53c10.96,-0.72 18.82,-9.89 25.4,-17.68 0.34,-0.41 -0.24,-0.99 -0.58,-0.58 -6.39,7.63 -14.14,16.74 -24.79,17.46 -0.56,0 -0.56,0.82 -0.03,0.8z"/>
  <path class="fil3" d="M163.61 83.73c0.05,2.18 1.49,4.06 3.6,4.67 0.52,0.14 0.74,-0.66 0.22,-0.8 -1.75,-0.5 -2.94,-2.07 -2.99,-3.87 -0.03,-0.52 -0.86,-0.52 -0.83,0z"/>
  <path class="fil3" d="M164.47 83.48c0.27,-2.4 4.56,-0.66 5.72,-0.05 1.14,0.58 2.27,1.16 2.52,2.54 0.2,1.05 -0.14,2.15 -0.41,3.17 -0.14,0.53 0.66,0.75 0.8,0.23 0.39,-1.38 0.8,-2.96 0.22,-4.31 -0.55,-1.38 -2.07,-2.02 -3.32,-2.63 -1.27,-0.6 -2.66,-1.04 -4.1,-0.88 -0.58,0.08 -1.32,0.22 -1.79,0.61 -0.5,0.38 -0.39,0.66 -0.47,1.35 -0.06,0.5 0.77,0.5 0.83,-0.03z"/>
  <path class="fil3" d="M172.02 88.98c-0.08,2.1 0.39,4.14 -0.11,6.24 -0.47,1.93 -1.41,3.73 -2.35,5.47 -0.25,0.47 0.47,0.88 0.72,0.41 0.97,-1.82 1.93,-3.67 2.43,-5.66 0.53,-2.15 0.06,-4.28 0.14,-6.46 0.03,-0.55 -0.8,-0.55 -0.83,0z"/>
  <path class="fil3" d="M169.56 100.72c-0.64,14.55 3.54,28.8 2.88,43.35 -0.03,0.53 0.8,0.53 0.83,0 0.66,-14.55 -3.52,-28.8 -2.88,-43.35 0.03,-0.53 -0.8,-0.53 -0.83,0z"/>
  <path class="fil3" d="M155.97 101.02c0.83,1.16 1.72,2.26 2.71,3.29 0.36,0.38 0.94,-0.2 0.58,-0.58 -0.94,-1 -1.8,-2.02 -2.57,-3.12 -0.33,-0.45 -1.05,-0.03 -0.72,0.41z"/>
  <path class="fil3" d="M159.15 104.08c-1.57,8.98 -2.35,18.09 -2.32,27.21 0.03,4.53 0.25,9.08 0.69,13.59 0.36,3.83 0.8,7.87 2.82,11.23 1.83,3.07 5.04,5.39 8.69,5.31 0.53,-0.03 0.53,-0.86 0,-0.83 -5.12,0.14 -8.41,-4.42 -9.6,-8.89 -1.33,-4.92 -1.44,-10.28 -1.63,-15.33 -0.42,-10.72 0.33,-21.49 2.18,-32.04 0.06,-0.55 -0.74,-0.77 -0.83,-0.25z"/>
  <path class="fil3" d="M153.92 91.69c-2.6,2.18 -5.12,4.47 -7.5,6.87 -0.38,0.39 0.22,0.97 0.58,0.58 2.41,-2.4 4.9,-4.69 7.5,-6.87 0.42,-0.34 -0.16,-0.92 -0.58,-0.58z"/>
  <path class="fil3" d="M146.17 99.31c-0.41,3.2 2.02,5.91 5.26,5.88 0.53,0 0.53,-0.83 0,-0.83 -2.79,0.03 -4.79,-2.32 -4.43,-5.05 0.09,-0.53 -0.74,-0.53 -0.83,0z"/>
  <path class="fil3" d="M146.95 99.11c2.9,0.09 4.92,2.68 4.32,5.5 -0.11,0.53 0.69,0.75 0.8,0.22 0.75,-3.4 -1.63,-6.43 -5.12,-6.54 -0.53,0 -0.53,0.82 0,0.82z"/>
  <path class="fil3" d="M152.4 104.69c3.16,-2.87 6.36,-5.71 9.44,-8.67 1.41,-1.35 2.76,-2.73 4.04,-4.22 0.69,-0.8 2.43,-2.38 2.46,-3.48 0,-0.14 -0.08,-0.31 -0.19,-0.36 -0.06,-0.03 -0.11,-0.06 -0.14,-0.06 -0.17,-0.08 -0.39,-0.08 -0.5,0.06 -0.03,0.03 -0.06,0.05 -0.08,0.11 -0.33,0.41 0.25,0.99 0.58,0.58 0.03,-0.03 0.05,-0.06 0.08,-0.11 -0.16,0.02 -0.33,0.05 -0.5,0.05 -0.05,-0.25 -0.14,-0.25 -0.25,0.03 -0.13,0.19 -0.27,0.39 -0.44,0.58 -0.33,0.41 -0.64,0.83 -1,1.24 -0.55,0.69 -1.16,1.36 -1.74,2.02 -1.22,1.32 -2.49,2.57 -3.79,3.78 -2.82,2.65 -5.7,5.22 -8.55,7.84 -0.42,0.39 0.19,0.97 0.58,0.61z"/>
  <path class="fil3" d="M152.76 93.23c0.19,-1.32 0.39,-2.65 0.58,-3.97 0.14,-1 0.25,-2.1 0.8,-2.99 1.28,-2.04 3.08,-0.58 4.04,0.8 0.42,0.58 0.81,1.22 1.22,1.8 0.22,0.33 1.3,1.52 1.16,1.93 0.14,-0.11 0.28,-0.19 0.39,-0.3 -0.05,0 -0.08,0 -0.14,0 -0.52,-0.03 -0.52,0.8 0,0.83 0.06,0 0.09,0 0.14,0 0.19,0 0.36,-0.14 0.39,-0.31 0.19,-0.69 -0.28,-1.1 -0.64,-1.65 -0.69,-1.03 -1.35,-2.08 -2.07,-3.07 -0.75,-1.02 -1.72,-2.02 -3.1,-1.88 -1.33,0.14 -2.13,1.16 -2.55,2.35 -0.69,1.96 -0.75,4.2 -1.05,6.24 -0.06,0.53 0.75,0.75 0.83,0.22z"/>
  <path class="fil3" d="M154.06 90.11c0.75,1.47 1.99,2.96 3.76,3.07 1.47,0.11 2.85,-0.72 3.24,-2.16 0.14,-0.52 -0.66,-0.74 -0.8,-0.22 -0.36,1.33 -1.83,1.82 -3.04,1.41 -1.17,-0.41 -1.91,-1.44 -2.44,-2.49 -0.25,-0.49 -0.97,-0.08 -0.72,0.39z"/>
  <path class="fil3" d="M155.08 84.73c0.14,-1.36 1.69,-1.72 2.74,-1.36 1.11,0.36 1.97,1.36 2.74,2.16 0.61,0.63 1.8,1.52 1.97,2.4 0.22,1.19 -1.27,1.99 -2.27,2.29 -0.5,0.14 -0.31,0.94 0.22,0.8 1.22,-0.36 2.99,-1.43 3.18,-2.87 0.09,-0.58 -0.27,-0.88 -0.66,-1.3 -0.78,-0.83 -1.52,-1.63 -2.33,-2.43 -1.07,-1.1 -2.46,-2.29 -4.12,-2.01 -1.24,0.19 -2.16,1.02 -2.3,2.29 -0.05,0.55 0.78,0.55 0.83,0.03z"/>
  <path class="fil3" d="M156.58 82.68c0.39,-0.44 0.58,-1.02 0.94,-1.46 0.89,-1.11 2.27,-0.08 3.18,0.58 1.77,1.24 3.66,3.51 2.05,5.66 -0.3,0.44 0.41,0.86 0.72,0.42 1.72,-2.32 0.03,-5 -1.94,-6.49 -0.91,-0.7 -2.29,-1.94 -3.54,-1.58 -1.11,0.3 -1.3,1.58 -1.99,2.32 -0.36,0.36 0.22,0.94 0.58,0.55z"/>
  <path class="fil3" d="M159.37 80.17c0.97,-1.19 2.25,-2.43 3.74,-1.19 1,0.8 1.63,1.93 1.99,3.12 0.17,0.5 0.94,0.31 0.8,-0.22 -0.47,-1.6 -1.54,-3.45 -3.15,-4.11 -1.63,-0.67 -2.99,0.63 -3.96,1.82 -0.33,0.39 0.25,0.99 0.58,0.58z"/>
  <path class="fil3" d="M165.49 80.28c1.72,-1.46 3.43,-2.93 5.15,-4.36 0.41,-0.36 -0.2,-0.94 -0.58,-0.58 -1.72,1.46 -3.44,2.92 -5.15,4.36 -0.42,0.36 0.19,0.94 0.58,0.58z"/>
  <path class="fil3" d="M171.61 83.81c1.63,-1.18 3.21,-2.45 4.67,-3.83 0.39,-0.36 -0.19,-0.94 -0.58,-0.58 -1.44,1.32 -2.93,2.56 -4.51,3.7 -0.44,0.3 -0.03,1.02 0.42,0.71z"/>
  <path class="fil7 str0" d="M184.03 81.74c9.23,0 16.71,-7.46 16.71,-16.68 0,-9.21 -7.48,-16.68 -16.71,-16.68 -9.23,0 -16.71,7.47 -16.71,16.68 0,9.22 7.48,16.68 16.71,16.68z"/>
  <path class="fil3" d="M173.9 67.11c6.15,-3.92 12.43,-7.62 18.85,-11.1 0.47,-0.25 0.05,-0.97 -0.42,-0.72 -6.42,3.45 -12.7,7.15 -18.84,11.1 -0.45,0.3 -0.03,1.02 0.41,0.72z"/>
  <path class="fil3" d="M174.59 74.34c5.07,-3.7 10.19,-7.26 15.42,-10.74 0.44,-0.3 0.03,-1.02 -0.42,-0.72 -5.2,3.48 -10.35,7.07 -15.41,10.75 -0.44,0.3 -0.03,1.02 0.41,0.71z"/>
 </g>
</svg>
